<svg width="20" height="19" viewBox="0 0 20 19" fill="none" xmlns="http://www.w3.org/2000/svg">
<path fill-rule="evenodd" clip-rule="evenodd" d="M19.6497 18.625C19.5157 18.8571 19.268 19.0001 19 19H1C0.732188 18.9997 0.484845 18.8567 0.351058 18.6247C0.217271 18.3927 0.217344 18.1069 0.35125 17.875C1.77906 15.4066 3.97938 13.6366 6.54719 12.7975C3.93645 11.2433 2.68585 8.13638 3.49182 5.2069C4.29779 2.27741 6.96167 0.247449 10 0.247449C13.0383 0.247449 15.7022 2.27741 16.5082 5.2069C17.3142 8.13638 16.0635 11.2433 13.4528 12.7975C16.0206 13.6366 18.2209 15.4066 19.6488 17.875C19.783 18.1069 19.7834 18.3928 19.6497 18.625V18.625Z" fill="#0F1417"/>
</svg>
